<svg width="39" height="27" viewBox="0 0 39 27" fill="none" xmlns="http://www.w3.org/2000/svg">
<path d="M12.7314 4.70605C12.6175 4.66048 12.4808 4.58073 12.3213 4.4668C12.1618 4.35286 11.9339 4.25033 11.6377 4.15918C11.3415 4.04525 10.9655 3.9541 10.5098 3.88574C10.054 3.81738 9.47298 3.80599 8.7666 3.85156V0.399414C9.76921 0.422201 10.7832 0.536133 11.8086 0.741211C12.8568 0.923503 13.6999 1.21973 14.3379 1.62988C14.2012 1.92611 14.0417 2.25651 13.8594 2.62109C13.6771 2.96289 13.5062 3.29329 13.3467 3.6123C13.1872 3.90853 13.0505 4.15918 12.9365 4.36426C12.8226 4.56934 12.7542 4.68327 12.7314 4.70605ZM0.939453 7.44043C0.939453 6.43783 1.11035 5.53776 1.45215 4.74023C1.79395 3.94271 2.24967 3.24772 2.81934 2.65527C3.41178 2.04004 4.09538 1.56152 4.87012 1.21973C5.66764 0.855143 6.49935 0.615885 7.36523 0.501953V4.09082C6.63607 4.34147 6.03223 4.78581 5.55371 5.42383C5.0752 6.03906 4.83594 6.66569 4.83594 7.30371C4.83594 8.19238 5.0752 8.91016 5.55371 9.45703C6.03223 10.0039 6.63607 10.4824 7.36523 10.8926V14.7891C6.61328 14.4245 5.86133 14.0371 5.10938 13.627C4.35742 13.194 3.67383 12.6927 3.05859 12.123C2.44336 11.5534 1.93066 10.8926 1.52051 10.1406C1.13314 9.38867 0.939453 8.48861 0.939453 7.44043ZM1.48633 21.3857C1.80534 21.568 2.2041 21.7503 2.68262 21.9326C3.18392 22.0921 3.69661 22.2516 4.2207 22.4111C4.74479 22.5479 5.26888 22.6618 5.79297 22.7529C6.31706 22.8441 6.80697 22.8896 7.2627 22.8896H7.36523V26.1367H7.29688C6.75 26.1367 6.18034 26.1025 5.58789 26.0342C5.01823 25.9886 4.43717 25.8975 3.84473 25.7607C3.25228 25.624 2.68262 25.4417 2.13574 25.2139C1.61165 24.9632 1.15592 24.667 0.768555 24.3252L1.48633 21.3857ZM8.7666 11.5762C9.51855 11.918 10.2819 12.2826 11.0566 12.6699C11.8542 13.0573 12.5719 13.5358 13.21 14.1055C13.848 14.6523 14.3721 15.3245 14.7822 16.1221C15.1924 16.9196 15.3975 17.9108 15.3975 19.0957C15.3975 19.916 15.238 20.7135 14.9189 21.4883C14.6227 22.263 14.1898 22.9694 13.6201 23.6074C13.0732 24.2227 12.3896 24.7467 11.5693 25.1797C10.749 25.6126 9.81478 25.8975 8.7666 26.0342V22.7529C10.6351 22.2972 11.5693 21.0553 11.5693 19.0273C11.5693 18.2298 11.3073 17.569 10.7832 17.0449C10.2591 16.5208 9.58691 16.0309 8.7666 15.5752V11.5762Z" fill="#A18A68"/>
<path d="M38.9131 0.80957V26H34.8115V14.6523H25.3096V11.8496H34.8115V0.80957H38.9131ZM19.7383 0.80957H23.9082V26H19.7383V0.80957Z" fill="black"/>
</svg>
